<svg xmlns="http://www.w3.org/2000/svg" version="1.1" xmlns:xlink="http://www.w3.org/1999/xlink" xmlns:svgjs="http://svgjs.dev/svgjs" width="1500" height="306" viewBox="0 0 1500 306"><g transform="matrix(1,0,0,1,-0.9090909090909918,-0.27194979697301846)"><svg viewBox="0 0 396 81" data-background-color="#ffffff" preserveAspectRatio="xMidYMid meet" height="306" width="1500" xmlns="http://www.w3.org/2000/svg" xmlns:xlink="http://www.w3.org/1999/xlink"><g id="tight-bounds" transform="matrix(1,0,0,1,0.2400000000000091,0.07198671096344356)"><svg viewBox="0 0 395.52 80.8560265780731" height="80.8560265780731" width="395.52"><g><svg viewBox="0 0 395.52 80.8560265780731" height="80.8560265780731" width="395.52"><g><svg viewBox="0 0 395.52 80.8560265780731" height="80.8560265780731" width="395.52"><g id="textblocktransform"><svg viewBox="0 0 395.52 80.8560265780731" height="80.8560265780731" width="395.52" id="textblock"><g><svg viewBox="0 0 395.52 80.8560265780731" height="80.8560265780731" width="395.52"><g transform="matrix(1,0,0,1,0,0)"><svg width="395.52" viewBox="-0.9 -32.8 230.73 46.15" height="80.8560265780731" data-palette-color="#d7dbde"><g class="wordmark-text-0" data-fill-palette-color="primary" id="text-0"><path d="M11.85 1.65L11.85 1.65Q10.2 1.7 8.2 1.38 6.2 1.05 4.3 0.25 2.4-0.55 1-1.85-0.4-3.15-0.9-5.05L-0.9-5.05Q0.9-3.45 4-2.73 7.1-2 10.3-2L10.3-2Q14.55-2 17.7-2.95L17.7-2.95Q18.6-3.2 19.8-3.78 21-4.35 22.15-5.13 23.3-5.9 24.08-6.85 24.85-7.8 24.85-8.8L24.85-8.8Q24.85-9.5 24.4-10.15 23.95-10.8 22.95-11.45L22.95-11.45Q22.35-11.8 21.23-12.23 20.1-12.65 18.8-13.23 17.5-13.8 16.35-14.58 15.2-15.35 14.53-16.43 13.85-17.5 14-18.9L14-18.9Q14.25-20.95 15.88-22.98 17.5-25 19.98-26.78 22.45-28.55 25.33-29.9 28.2-31.25 30.98-32.02 33.75-32.8 35.9-32.8L35.9-32.8Q38.1-32.8 39.68-31.95 41.25-31.1 41-29.05L41-29.05Q40.9-28.15 39.78-26.9 38.65-25.65 37.1-24.15 35.55-22.65 34.02-21 32.5-19.35 31.53-17.65 30.55-15.95 30.65-14.35L30.65-14.35Q29.85-15 29.48-15.8 29.1-16.6 29.1-17.45L29.1-17.45Q29.1-18.65 29.6-19.9 30.1-21.15 30.85-22.28 31.6-23.4 32.25-24.2L32.25-24.2Q33.4-25.6 34.85-26.85 36.3-28.1 37.8-29.15L37.8-29.15Q37.35-29.8 36.25-29.8L36.25-29.8Q35.1-29.8 33.68-29.3 32.25-28.8 31.03-28.23 29.8-27.65 29.3-27.35L29.3-27.35Q27.15-26.2 24.98-24.75 22.8-23.3 20.98-21.8 19.15-20.3 18.03-19.03 16.9-17.75 16.8-16.9L16.8-16.9Q16.7-15.85 17.7-15.13 18.7-14.4 20.3-13.8 21.9-13.2 23.45-12.4L23.45-12.4Q25.55-11.35 26.5-10 27.45-8.65 27.45-7.2L27.45-7.2Q27.45-5.4 26.1-3.68 24.75-1.95 22.45-0.8L22.45-0.8Q20.4 0.2 18.18 0.75 15.95 1.3 14.23 1.48 12.5 1.65 11.85 1.65ZM31.75 0.05L31.75 0.05Q30.2 0.05 29.35-0.93 28.5-1.9 28.5-3.45L28.5-3.45Q28.5-4.9 29.27-6.65 30.05-8.4 31.75-10.2L31.75-10.2Q33.5-12.1 36.1-13.28 38.7-14.45 41.05-14.45L41.05-14.45Q42.95-14.45 44.3-13.63 45.65-12.8 46.1-11.55L46.1-11.55Q46.65-11.55 47.47-11.25 48.3-10.95 48.3-10.15L48.3-10.15Q48.3-9.6 47.75-8.9L47.75-8.9Q47.4-8.4 46.52-7.4 45.65-6.4 44.9-5.25L44.9-5.25Q44.3-4.35 43.95-3.58 43.6-2.8 43.6-2.25L43.6-2.25Q43.6-1.5 44.35-1.5L44.35-1.5Q45.2-1.5 46.9-2.45L46.9-2.45Q48.75-3.5 50.45-4.85 52.15-6.2 53.1-7L53.1-7Q53.35-7.2 53.45-7.2L53.45-7.2Q53.65-7.2 53.65-6.95L53.65-6.95Q53.65-6.65 53.4-6.4L53.4-6.4Q52.95-6 51.65-4.9 50.35-3.8 48.67-2.6 47-1.4 45.4-0.65L45.4-0.65Q44.6-0.3 43.92-0.13 43.25 0.05 42.7 0.05L42.7 0.05Q41.35 0.05 40.65-0.73 39.95-1.5 39.95-2.75L39.95-2.75Q39.95-3.25 40.1-3.8 40.25-4.35 40.45-4.9L40.45-4.9 40.8-5.75Q39.5-4.15 38.2-3.08 36.9-2 35.6-1.2L35.6-1.2Q34.5-0.55 33.52-0.25 32.55 0.05 31.75 0.05ZM33.3-1.25L33.3-1.25Q34.2-1.25 35.9-2.33 37.6-3.4 39.85-5.65L39.85-5.65Q40.15-5.95 40.97-6.73 41.8-7.5 42.75-8.47 43.7-9.45 44.37-10.43 45.05-11.4 45.05-12.05L45.05-12.05Q45.05-13 43.4-13L43.4-13Q41.95-13 39.92-11.88 37.9-10.75 36.05-8.55L36.05-8.55Q34.15-6.3 33.27-4.67 32.4-3.05 32.4-2.2L32.4-2.2Q32.4-1.25 33.3-1.25ZM63.59 0.05L63.59 0.05Q62.34 0.05 61.62-0.65 60.9-1.35 60.9-2.55L60.9-2.55Q60.9-3.3 61.25-4.25 61.59-5.2 62.34-6.2L62.34-6.2Q63.5-7.75 64.55-8.93 65.59-10.1 66.09-11.05L66.09-11.05Q66.59-11.95 66.59-12.45L66.59-12.45Q66.59-13.2 65.7-13.2L65.7-13.2Q64.9-13.2 63.42-12.33 61.95-11.45 60.34-9.5L60.34-9.5Q59.45-8.4 58.3-6.93 57.15-5.45 56.45-4.2L56.45-4.2Q56.15-3.65 55.87-3.08 55.59-2.5 55.05-1.15L55.05-1.15Q54.9-0.8 54.22-0.4 53.55 0 53.15 0L53.15 0Q52.84 0 52.84-0.25L52.84-0.25Q52.84-0.45 53-0.75L53-0.75Q53.25-1.2 54.12-3.6 55-6 56.34-9.25L56.34-9.25Q55.59-8.45 54.7-7.53 53.8-6.6 52.7-5.75L52.7-5.75Q52.5-5.55 52.25-5.55L52.25-5.55Q51.95-5.55 51.95-5.8L51.95-5.8Q51.95-6 52.4-6.35L52.4-6.35Q53.55-7.35 54.7-8.47 55.84-9.6 57.2-11.3L57.2-11.3Q57.65-12.4 58.8-14.48 59.95-16.55 61.55-19.1 63.15-21.65 65.09-24.2 67.05-26.75 69.09-28.75L69.09-28.75Q70.95-30.55 72.97-31.5 75-32.45 76.65-32.45L76.65-32.45Q78.09-32.45 79-31.75 79.9-31.05 79.9-29.5L79.9-29.5Q79.9-27.95 79.05-26.2 78.2-24.45 77.25-23.4L77.25-23.4Q75.09-21 72.17-19 69.25-17 66.05-15.6L66.05-15.6Q65.95-15.55 65.84-15.53 65.75-15.5 65.65-15.5L65.65-15.5Q65.3-15.5 65.3-15.75L65.3-15.75Q65.3-16.05 65.84-16.25L65.84-16.25Q67.75-17.1 69.72-18.35 71.7-19.6 73.4-21.05 75.09-22.5 76.25-23.95L76.25-23.95Q77.59-25.65 78-26.73 78.4-27.8 78.4-28.55L78.4-28.55Q78.4-29.55 77.3-29.55L77.3-29.55Q76.8-29.55 75.84-29.08 74.9-28.6 73.59-27.55L73.59-27.55Q71.59-25.95 69.47-23.65 67.34-21.35 65.32-18.65 63.3-15.95 61.5-13.15 59.7-10.35 58.25-7.7L58.25-7.7Q58.84-8.55 59.5-9.43 60.15-10.3 60.8-11L60.8-11Q62.3-12.65 63.75-13.4 65.2-14.15 66.34-14.15L66.34-14.15Q67.65-14.15 68.45-13.38 69.25-12.6 69.25-11.3L69.25-11.3Q69.25-10.6 69.02-9.93 68.8-9.25 68.5-8.7L68.5-8.7Q68.09-7.85 67.45-6.7 66.8-5.55 66.2-4.55L66.2-4.55Q65.05-2.7 65.05-1.9L65.05-1.9Q65.05-1.45 65.45-1.45L65.45-1.45Q65.95-1.45 67.09-2.15L67.09-2.15Q68-2.7 69.12-3.58 70.25-4.45 71.37-5.4 72.5-6.35 73.32-7.08 74.15-7.8 74.4-8.05L74.4-8.05Q74.7-8.35 74.84-8.35L74.84-8.35Q75-8.35 75-8.2L75-8.2Q75-7.95 74.65-7.5L74.65-7.5Q73.34-6.15 71.4-4.45 69.45-2.75 67-1.15L67-1.15Q66.05-0.5 65.17-0.23 64.3 0.05 63.59 0.05ZM84.09-15.3L84.09-15.3Q83.39-15.3 83.04-15.75 82.69-16.2 82.69-16.7L82.69-16.7Q82.69-17.7 83.64-18.68 84.59-19.65 85.64-19.65L85.64-19.65Q86.34-19.65 86.69-19.2 87.04-18.75 87.04-18.25L87.04-18.25Q87.04-17.2 86.12-16.25 85.19-15.3 84.09-15.3ZM76.44 0.05L76.44 0.05Q74.39 0.05 73.67-0.83 72.94-1.7 72.94-2.8L72.94-2.8Q72.94-3.7 73.24-4.53 73.54-5.35 73.74-5.7L73.74-5.7Q74.04-6.2 74.57-6.85 75.09-7.5 75.74-8.25L75.74-8.25Q74.74-7.4 73.87-6.6 72.99-5.8 72.44-5.4L72.44-5.4Q72.29-5.25 72.14-5.25L72.14-5.25Q71.94-5.25 71.94-5.5L71.94-5.5Q71.94-5.9 72.49-6.3L72.49-6.3Q73.79-7.4 75.02-8.7 76.24-10 77.34-11.13 78.44-12.25 79.29-12.7L79.29-12.7Q80.19-13.2 80.74-13.35 81.29-13.5 81.64-13.5L81.64-13.5Q82.19-13.5 82.44-13.33 82.69-13.15 82.54-12.95L82.54-12.95Q81.69-12.1 80.87-10.78 80.04-9.45 79.34-8 78.64-6.55 78.22-5.25 77.79-3.95 77.79-3.05L77.79-3.05Q77.79-1.8 78.79-1.8L78.79-1.8Q79.74-1.8 81.27-2.68 82.79-3.55 84.47-4.9 86.14-6.25 87.59-7.55L87.59-7.55Q87.79-7.75 87.94-7.75L87.94-7.75Q88.19-7.75 88.22-7.5 88.24-7.25 88.09-7.15L88.09-7.15Q86.44-5.6 84.37-3.93 82.29-2.25 80.22-1.1 78.14 0.05 76.44 0.05ZM91.29 0.25L91.29 0.25Q89.29 0.25 88.49-0.73 87.69-1.7 87.69-3L87.69-3Q87.69-4.25 88.17-5.65 88.64-7.05 89.24-8.3L89.24-8.3Q88.59-7.6 87.99-7.03 87.39-6.45 86.99-6.1L86.99-6.1Q86.79-5.95 86.59-5.95L86.59-5.95Q86.34-5.95 86.34-6.2L86.34-6.2Q86.34-6.45 86.64-6.65L86.64-6.65Q87.69-7.55 89.09-9.1 90.49-10.65 91.69-12.25L91.69-12.25Q92.69-13.55 94.09-15.5 95.49-17.45 96.94-19.63 98.39-21.8 99.44-23.6L99.44-23.6Q99.59-23.9 99.77-24.35 99.94-24.8 99.94-25.15L99.94-25.15Q99.94-25.65 99.54-25.65L99.54-25.65Q99.44-25.65 98.97-25.45 98.49-25.25 98.04-25.05 97.59-24.85 97.49-24.85L97.49-24.85Q97.09-24.85 97.54-25.3L97.54-25.3Q98.34-25.9 99.57-26.48 100.79-27.05 102.09-27.45 103.39-27.85 104.29-27.85L104.29-27.85Q106.39-27.85 106.39-26.5L106.39-26.5Q106.39-25.8 105.74-24.65L105.74-24.65Q105.19-23.75 104.14-22.53 103.09-21.3 101.82-19.93 100.54-18.55 99.34-17.23 98.14-15.9 97.34-14.9L97.34-14.9Q97.14-14.65 96.37-13.6 95.59-12.55 94.62-11.08 93.64-9.6 92.67-7.98 91.69-6.35 91.07-4.88 90.44-3.4 90.44-2.4L90.44-2.4Q90.44-1.05 91.74-1.05L91.74-1.05Q92.59-1.05 93.89-1.55L93.89-1.55Q95.14-2 96.52-2.93 97.89-3.85 99.22-4.9 100.54-5.95 101.57-6.9 102.59-7.85 103.09-8.35L103.09-8.35Q103.39-8.65 103.59-8.65L103.59-8.65Q103.79-8.65 103.79-8.4L103.79-8.4Q103.79-8.15 103.54-7.9L103.54-7.9Q102.74-7.05 101.37-5.7 99.99-4.35 98.32-2.98 96.64-1.6 94.84-0.68 93.04 0.25 91.29 0.25Z" fill="#d7dbde" data-fill-palette-color="primary"></path><path d="M131.59 1.65L131.59 1.65Q129.94 1.7 127.94 1.38 125.94 1.05 124.04 0.25 122.14-0.55 120.74-1.85 119.34-3.15 118.84-5.05L118.84-5.05Q120.64-3.45 123.74-2.73 126.84-2 130.04-2L130.04-2Q134.29-2 137.44-2.95L137.44-2.95Q138.34-3.2 139.54-3.78 140.74-4.35 141.89-5.13 143.04-5.9 143.81-6.85 144.59-7.8 144.59-8.8L144.59-8.8Q144.59-9.5 144.14-10.15 143.69-10.8 142.69-11.45L142.69-11.45Q142.09-11.8 140.96-12.23 139.84-12.65 138.54-13.23 137.24-13.8 136.09-14.58 134.94-15.35 134.26-16.43 133.59-17.5 133.74-18.9L133.74-18.9Q133.99-20.95 135.61-22.98 137.24-25 139.71-26.78 142.19-28.55 145.06-29.9 147.94-31.25 150.71-32.02 153.49-32.8 155.64-32.8L155.64-32.8Q157.84-32.8 159.41-31.95 160.99-31.1 160.74-29.05L160.74-29.05Q160.64-28.15 159.51-26.9 158.39-25.65 156.84-24.15 155.29-22.65 153.76-21 152.24-19.35 151.26-17.65 150.29-15.95 150.39-14.35L150.39-14.35Q149.59-15 149.21-15.8 148.84-16.6 148.84-17.45L148.84-17.45Q148.84-18.65 149.34-19.9 149.84-21.15 150.59-22.28 151.34-23.4 151.99-24.2L151.99-24.2Q153.14-25.6 154.59-26.85 156.04-28.1 157.54-29.15L157.54-29.15Q157.09-29.8 155.99-29.8L155.99-29.8Q154.84-29.8 153.41-29.3 151.99-28.8 150.76-28.23 149.54-27.65 149.04-27.35L149.04-27.35Q146.89-26.2 144.71-24.75 142.54-23.3 140.71-21.8 138.89-20.3 137.76-19.03 136.64-17.75 136.54-16.9L136.54-16.9Q136.44-15.85 137.44-15.13 138.44-14.4 140.04-13.8 141.64-13.2 143.19-12.4L143.19-12.4Q145.29-11.35 146.24-10 147.19-8.65 147.19-7.2L147.19-7.2Q147.19-5.4 145.84-3.68 144.49-1.95 142.19-0.8L142.19-0.8Q140.14 0.2 137.91 0.75 135.69 1.3 133.96 1.48 132.24 1.65 131.59 1.65ZM159.89-15.3L159.89-15.3Q159.19-15.3 158.84-15.75 158.49-16.2 158.49-16.7L158.49-16.7Q158.49-17.7 159.44-18.68 160.39-19.65 161.44-19.65L161.44-19.65Q162.14-19.65 162.49-19.2 162.84-18.75 162.84-18.25L162.84-18.25Q162.84-17.2 161.91-16.25 160.99-15.3 159.89-15.3ZM152.24 0.05L152.24 0.05Q150.19 0.05 149.46-0.83 148.74-1.7 148.74-2.8L148.74-2.8Q148.74-3.7 149.04-4.53 149.34-5.35 149.54-5.7L149.54-5.7Q149.84-6.2 150.36-6.85 150.89-7.5 151.54-8.25L151.54-8.25Q150.54-7.4 149.66-6.6 148.79-5.8 148.24-5.4L148.24-5.4Q148.09-5.25 147.94-5.25L147.94-5.25Q147.74-5.25 147.74-5.5L147.74-5.5Q147.74-5.9 148.29-6.3L148.29-6.3Q149.59-7.4 150.81-8.7 152.04-10 153.14-11.13 154.24-12.25 155.09-12.7L155.09-12.7Q155.99-13.2 156.54-13.35 157.09-13.5 157.44-13.5L157.44-13.5Q157.99-13.5 158.24-13.33 158.49-13.15 158.34-12.95L158.34-12.95Q157.49-12.1 156.66-10.78 155.84-9.45 155.14-8 154.44-6.55 154.01-5.25 153.59-3.95 153.59-3.05L153.59-3.05Q153.59-1.8 154.59-1.8L154.59-1.8Q155.54-1.8 157.06-2.68 158.59-3.55 160.26-4.9 161.94-6.25 163.39-7.55L163.39-7.55Q163.59-7.75 163.74-7.75L163.74-7.75Q163.99-7.75 164.01-7.5 164.04-7.25 163.89-7.15L163.89-7.15Q162.24-5.6 160.16-3.93 158.09-2.25 156.01-1.1 153.94 0.05 152.24 0.05ZM162.23 0.25L162.23 0.25Q161.73 0.25 161.03 0.03 160.33-0.2 159.63-0.8L159.63-0.8Q160.18-1.55 161.21-2.83 162.23-4.1 163.38-5.65 164.53-7.2 165.53-8.75L165.53-8.75Q164.73-7.95 163.78-7.05 162.83-6.15 161.88-5.4L161.88-5.4Q161.68-5.2 161.43-5.2L161.43-5.2Q161.23-5.2 161.23-5.4L161.23-5.4Q161.23-5.65 161.63-6L161.63-6Q163.03-7.25 164.76-8.88 166.48-10.5 167.28-12.2L167.28-12.2Q167.53-12.8 167.53-13.3L167.53-13.3Q167.53-13.95 167.28-14.1L167.28-14.1Q167.08-14.25 167.08-14.5L167.08-14.5Q167.08-14.95 167.53-14.95L167.53-14.95Q167.78-14.95 167.93-14.85L167.93-14.85Q168.48-14.6 168.98-13.9 169.48-13.2 169.48-11.8L169.48-11.8Q169.48-11 169.28-9.98 169.08-8.95 168.58-7.65L168.58-7.65Q169.33-8.65 170.11-9.6 170.88-10.55 171.53-11.3L171.53-11.3Q172.88-12.85 174.26-13.53 175.63-14.2 176.73-14.2L176.73-14.2Q178.03-14.2 178.83-13.45 179.63-12.7 179.63-11.5L179.63-11.5Q179.63-10.55 179.13-9.55L179.13-9.55Q178.98-9.15 178.43-8.33 177.88-7.5 177.23-6.55 176.58-5.6 176.03-4.85L176.03-4.85Q175.38-4.05 175.13-3.48 174.88-2.9 174.88-2.55L174.88-2.55Q174.88-2.05 175.43-2.05L175.43-2.05Q176.13-2.05 177.38-2.8L177.38-2.8Q178.13-3.25 179.11-4.03 180.08-4.8 181.06-5.63 182.03-6.45 182.63-7L182.63-7Q182.83-7.2 182.98-7.2L182.98-7.2Q183.18-7.2 183.18-6.95L183.18-6.95Q183.18-6.65 182.93-6.4L182.93-6.4Q181.43-5 179.46-3.35 177.48-1.7 175.58-0.8L175.58-0.8Q174.03-0.05 172.73-0.05L172.73-0.05Q171.63-0.05 170.98-0.63 170.33-1.2 170.33-2.3L170.33-2.3Q170.33-3.1 170.73-4.2L170.73-4.2Q171.23-5.55 172.16-6.9 173.08-8.25 174.11-9.47 175.13-10.7 175.88-11.55L175.88-11.55Q176.53-12.25 176.53-12.75L176.53-12.75Q176.53-13.2 175.93-13.2L175.93-13.2Q175.33-13.2 174.16-12.53 172.98-11.85 171.53-10.35L171.53-10.35Q169.48-8.2 167.93-5.7 166.38-3.2 164.38-1L164.38-1Q163.28 0.25 162.23 0.25ZM177.88 13.35L177.88 13.35Q174.83 13.35 172.83 12.65 170.83 11.95 169.63 10.75L169.63 10.75Q168.83 9.9 168.13 8.53 167.43 7.15 167.43 6.2L167.43 6.2Q167.43 5.85 167.58 5.85L167.58 5.85Q167.93 5.85 168.03 6.25L168.03 6.25Q168.03 6.4 168.36 7.4 168.68 8.4 169.53 9.6 170.38 10.8 172.03 11.7 173.68 12.6 176.33 12.6L176.33 12.6Q179.48 12.6 181.98 11.13 184.48 9.65 186.46 7.28 188.43 4.9 190.08 2.1 191.73-0.7 193.23-3.4 194.73-6.1 196.28-8.15L196.28-8.15Q195.63-7.45 194.66-6.43 193.68-5.4 192.58-4.35 191.48-3.3 190.48-2.45 189.48-1.6 188.83-1.2L188.83-1.2Q187.73-0.55 186.76-0.25 185.78 0.05 184.98 0.05L184.98 0.05Q183.43 0.05 182.58-0.93 181.73-1.9 181.73-3.45L181.73-3.45Q181.73-4.9 182.51-6.65 183.28-8.4 184.98-10.2L184.98-10.2Q186.73-12.1 189.33-13.28 191.93-14.45 194.28-14.45L194.28-14.45Q195.13-14.45 195.93-14.28 196.73-14.1 197.38-13.7L197.38-13.7Q198.28-13.15 198.71-12.68 199.13-12.2 199.33-11.55L199.33-11.55Q199.63-11.55 200.28-11.28 200.93-11 201.48-10.63 202.03-10.25 202.03-9.85L202.03-9.85Q202.03-9.65 201.63-9.4L201.63-9.4Q200.63-8.9 199.38-7.03 198.13-5.15 196.61-2.58 195.08 0 193.21 2.78 191.33 5.55 189.03 7.95 186.73 10.35 183.96 11.85 181.18 13.35 177.88 13.35ZM186.38-1.25L186.38-1.25Q187.38-1.25 188.83-2.25L188.83-2.25Q189.93-3 191.23-4.13 192.53-5.25 193.78-6.5 195.03-7.75 195.93-8.8L195.93-8.8Q197.58-10.7 197.58-11.9L197.58-11.9Q197.58-12.9 196.38-12.9L196.38-12.9Q195.18-12.9 193.08-11.75L193.08-11.75Q191.88-11.1 190.53-9.9 189.18-8.7 188.01-7.3 186.83-5.9 186.13-4.7L186.13-4.7Q185.33-3.25 185.33-2.35L185.33-2.35Q185.33-1.25 186.38-1.25ZM213.53 0.05L213.53 0.05Q212.28 0.05 211.55-0.65 210.83-1.35 210.83-2.55L210.83-2.55Q210.83-3.3 211.18-4.25 211.53-5.2 212.28-6.2L212.28-6.2Q213.43-7.75 214.48-8.93 215.53-10.1 216.03-11.05L216.03-11.05Q216.53-11.95 216.53-12.45L216.53-12.45Q216.53-13.2 215.63-13.2L215.63-13.2Q214.83-13.2 213.35-12.33 211.88-11.45 210.28-9.5L210.28-9.5Q209.38-8.4 208.23-6.93 207.08-5.45 206.38-4.2L206.38-4.2Q206.08-3.65 205.8-3.08 205.53-2.5 204.98-1.15L204.98-1.15Q204.83-0.8 204.15-0.4 203.48 0 203.08 0L203.08 0Q202.78 0 202.78-0.25L202.78-0.25Q202.78-0.45 202.93-0.75L202.93-0.75Q203.18-1.2 204.05-3.6 204.93-6 206.28-9.25L206.28-9.25Q205.53-8.45 204.63-7.53 203.73-6.6 202.63-5.75L202.63-5.75Q202.43-5.55 202.18-5.55L202.18-5.55Q201.88-5.55 201.88-5.8L201.88-5.8Q201.88-6 202.33-6.35L202.33-6.35Q203.48-7.35 204.63-8.47 205.78-9.6 207.13-11.3L207.13-11.3Q207.58-12.4 208.73-14.48 209.88-16.55 211.48-19.1 213.08-21.65 215.03-24.2 216.98-26.75 219.03-28.75L219.03-28.75Q220.88-30.55 222.9-31.5 224.93-32.45 226.58-32.45L226.58-32.45Q228.03-32.45 228.93-31.75 229.83-31.05 229.83-29.5L229.83-29.5Q229.83-27.95 228.98-26.2 228.13-24.45 227.18-23.4L227.18-23.4Q225.03-21 222.1-19 219.18-17 215.98-15.6L215.98-15.6Q215.88-15.55 215.78-15.53 215.68-15.5 215.58-15.5L215.58-15.5Q215.23-15.5 215.23-15.75L215.23-15.75Q215.23-16.05 215.78-16.25L215.78-16.25Q217.68-17.1 219.65-18.35 221.63-19.6 223.33-21.05 225.03-22.5 226.18-23.95L226.18-23.95Q227.53-25.65 227.93-26.73 228.33-27.8 228.33-28.55L228.33-28.55Q228.33-29.55 227.23-29.55L227.23-29.55Q226.73-29.55 225.78-29.08 224.83-28.6 223.53-27.55L223.53-27.55Q221.53-25.95 219.4-23.65 217.28-21.35 215.25-18.65 213.23-15.95 211.43-13.15 209.63-10.35 208.18-7.7L208.18-7.7Q208.78-8.55 209.43-9.43 210.08-10.3 210.73-11L210.73-11Q212.23-12.65 213.68-13.4 215.13-14.15 216.28-14.15L216.28-14.15Q217.58-14.15 218.38-13.38 219.18-12.6 219.18-11.3L219.18-11.3Q219.18-10.6 218.95-9.93 218.73-9.25 218.43-8.7L218.43-8.7Q218.03-7.85 217.38-6.7 216.73-5.55 216.13-4.55L216.13-4.55Q214.98-2.7 214.98-1.9L214.98-1.9Q214.98-1.45 215.38-1.45L215.38-1.45Q215.88-1.45 217.03-2.15L217.03-2.15Q217.93-2.7 219.05-3.58 220.18-4.45 221.3-5.4 222.43-6.35 223.25-7.08 224.08-7.8 224.33-8.05L224.33-8.05Q224.63-8.35 224.78-8.35L224.78-8.35Q224.93-8.35 224.93-8.2L224.93-8.2Q224.93-7.95 224.58-7.5L224.58-7.5Q223.28-6.15 221.33-4.45 219.38-2.75 216.93-1.15L216.93-1.15Q215.98-0.5 215.1-0.23 214.23 0.05 213.53 0.05Z" fill="#f84e45" data-fill-palette-color="accent"></path></g></svg></g></svg></g></svg></g></svg></g><g></g></svg></g><defs></defs></svg><rect width="395.52" height="80.8560265780731" fill="none" stroke="none" visibility="hidden"></rect></g></svg></g></svg>